<?xml version="1.0" encoding="utf-8"?>
<!-- Generator: Adobe Illustrator 17.0.0, SVG Export Plug-In . SVG Version: 6.00 Build 0)  -->
<!DOCTYPE svg PUBLIC "-//W3C//DTD SVG 1.1//EN" "http://www.w3.org/Graphics/SVG/1.1/DTD/svg11.dtd">
<svg version="1.1" id="Layer_1" xmlns="http://www.w3.org/2000/svg" xmlns:xlink="http://www.w3.org/1999/xlink" x="0px" y="0px"
	 width="158px" height="37.185px" viewBox="0 0 158 37.185" enable-background="new 0 0 158 37.185" xml:space="preserve">
<path fill="#BDAE86" d="M84.741,10.452c0,2.168-1.764,3.931-3.931,3.931c-2.168,0-3.932-1.764-3.932-3.931V0h-3.394v10.452
	c0,4.04,3.287,7.325,7.326,7.325c4.039,0,7.325-3.286,7.325-7.325V0h-3.394V10.452z"/>
<path fill="#BDAE86" d="M8.886,3.394c1.455,0,2.779,0.569,3.762,1.495l1.948-2.81C13.053,0.782,11.061,0,8.886,0
	C3.979,0,0,3.979,0,8.886c0,4.908,3.979,8.887,8.886,8.887c2.175,0,4.167-0.782,5.711-2.079l-1.948-2.81
	c-0.984,0.926-2.308,1.495-3.762,1.495c-3.029,0-5.492-2.464-5.492-5.493C3.394,5.858,5.857,3.394,8.886,3.394"/>
<polygon fill="#BDAE86" points="47.165,11.945 38.895,0 35.502,0 35.502,17.773 38.895,17.773 38.895,5.829 47.165,17.773 
	50.559,17.773 50.559,0 47.165,0 "/>
<polygon fill="#BDAE86" points="55.077,0 55.077,3.395 60.323,3.395 60.323,17.773 63.717,17.773 63.717,3.395 68.962,3.395 
	68.962,0 "/>
<polygon fill="#BDAE86" points="148.686,0 148.686,3.395 150.535,3.395 150.535,17.773 153.929,17.773 153.929,0 "/>
<polygon fill="#BDAE86" points="19.124,0 19.124,17.773 30.973,17.773 30.973,14.379 22.518,14.379 22.518,10.584 29.306,10.584 
	29.306,7.19 22.518,7.19 22.518,3.395 30.973,3.395 30.973,0 "/>
<path fill="#BDAE86" d="M106.299,5.966c0-3.289-2.677-5.966-5.966-5.966h-7.672v17.772h3.394v-5.839h2.167l4.043,5.839h4.034
	l-4.223-6.1C104.518,10.926,106.299,8.651,106.299,5.966 M100.333,8.539h-4.278V3.394h4.278c1.419,0,2.573,1.154,2.573,2.572
	C102.906,7.385,101.752,8.539,100.333,8.539"/>
<polygon fill="#BDAE86" points="121.845,0 116.869,7.188 111.893,0 107.857,0 115.172,10.565 115.172,17.773 118.566,17.773 
	118.566,10.565 125.879,0 "/>
<path fill="#BDAE86" d="M143.882,8.88l0.088-0.127c0.603-0.896,0.957-1.974,0.957-3.135c0-0.457-0.056-0.902-0.158-1.328
	C144.172,1.828,141.955,0,139.31,0c-3.102,0-5.618,2.515-5.618,5.618c0,0.07,0.001,0.14,0.004,0.209h3.399
	c-0.006-0.069-0.01-0.138-0.01-0.209c0-1.227,0.998-2.224,2.224-2.224c1.227,0,2.282,0.928,2.224,2.224
	c-0.026,0.572-0.526,1.45-0.715,1.727c-0.19,0.277-7.22,10.428-7.22,10.428h11.661v-3.394h-5.184L143.882,8.88z"/>
<path fill="#BDAE86" d="M156.534,14.895c0.247,0,0.486,0.064,0.722,0.19c0.234,0.126,0.417,0.307,0.549,0.542
	c0.13,0.235,0.195,0.481,0.195,0.737c0,0.252-0.064,0.495-0.193,0.729c-0.129,0.233-0.309,0.415-0.542,0.543
	c-0.232,0.129-0.476,0.194-0.731,0.194c-0.254,0-0.498-0.065-0.731-0.194c-0.232-0.128-0.414-0.31-0.543-0.543
	c-0.131-0.234-0.195-0.478-0.195-0.729c0-0.255,0.065-0.502,0.197-0.737c0.132-0.235,0.315-0.416,0.55-0.542
	C156.047,14.959,156.288,14.895,156.534,14.895 M156.534,15.139c-0.206,0-0.407,0.052-0.602,0.158
	c-0.195,0.105-0.348,0.257-0.458,0.453c-0.11,0.197-0.165,0.401-0.165,0.614c0,0.211,0.054,0.413,0.163,0.607
	c0.108,0.195,0.259,0.345,0.454,0.454c0.194,0.108,0.397,0.163,0.608,0.163s0.414-0.055,0.609-0.163
	c0.195-0.108,0.345-0.259,0.453-0.454c0.108-0.194,0.161-0.396,0.161-0.607c0-0.213-0.054-0.417-0.163-0.614
	c-0.11-0.196-0.263-0.348-0.459-0.453C156.939,15.191,156.739,15.139,156.534,15.139 M155.89,17.175v-1.579h0.543
	c0.185,0,0.319,0.015,0.402,0.043c0.083,0.03,0.149,0.08,0.199,0.154c0.048,0.072,0.073,0.149,0.073,0.23
	c0,0.117-0.04,0.217-0.123,0.302c-0.083,0.086-0.192,0.133-0.328,0.144c0.056,0.023,0.101,0.051,0.134,0.083
	c0.063,0.063,0.141,0.167,0.233,0.314l0.192,0.309h-0.31l-0.141-0.249c-0.11-0.195-0.198-0.318-0.266-0.367
	c-0.047-0.036-0.115-0.055-0.203-0.055h-0.151v0.672H155.89z M156.145,16.286h0.31c0.147,0,0.248-0.023,0.302-0.066
	c0.053-0.045,0.081-0.102,0.081-0.175c0-0.047-0.013-0.088-0.039-0.125c-0.026-0.038-0.062-0.064-0.108-0.082
	c-0.046-0.018-0.131-0.027-0.255-0.027h-0.29V16.286z"/>
<path fill="#BDAE86" d="M59.858,33.903c-0.694-0.359-1.239-0.857-1.632-1.494c-0.394-0.636-0.591-1.36-0.591-2.17
	c0-0.818,0.199-1.545,0.597-2.182c0.397-0.637,0.943-1.133,1.638-1.487c0.694-0.355,1.474-0.533,2.338-0.533
	c0.803,0,1.527,0.147,2.17,0.44c0.645,0.293,1.156,0.679,1.534,1.158l-1.216,0.811c-0.285-0.325-0.645-0.576-1.077-0.753
	c-0.432-0.177-0.903-0.266-1.412-0.266c-0.587,0-1.113,0.118-1.58,0.354c-0.467,0.235-0.834,0.567-1.1,0.996
	c-0.267,0.428-0.399,0.916-0.399,1.464s0.129,1.034,0.388,1.459c0.258,0.425,0.622,0.756,1.089,0.996
	c0.467,0.238,0.997,0.359,1.591,0.359c0.541,0,1.037-0.099,1.488-0.295c0.451-0.197,0.816-0.484,1.094-0.862l1.193,0.856
	c-0.409,0.548-0.947,0.967-1.615,1.256c-0.668,0.29-1.387,0.434-2.159,0.434C61.332,34.441,60.553,34.262,59.858,33.903"/>
<polygon fill="#BDAE86" points="73.577,28.467 69.93,36.641 68.645,36.641 69.618,34.326 66.851,28.467 68.321,28.467 
	70.289,32.739 72.095,28.467 "/>
<path fill="#BDAE86" d="M79.777,28.705c0.482,0.258,0.864,0.621,1.146,1.088c0.282,0.468,0.423,0.998,0.423,1.592
	c0,0.587-0.14,1.114-0.423,1.581c-0.281,0.467-0.664,0.829-1.146,1.088c-0.483,0.258-1.017,0.388-1.604,0.388
	c-0.44,0-0.838-0.075-1.193-0.225c-0.355-0.151-0.652-0.361-0.891-0.631v3.601h-1.343v-8.718h1.204l0.069,0.821
	c0.232-0.308,0.535-0.548,0.909-0.717c0.374-0.17,0.797-0.255,1.268-0.255C78.768,28.316,79.294,28.446,79.777,28.705 M79.4,32.676
	c0.362-0.328,0.544-0.762,0.544-1.302c0-0.532-0.182-0.965-0.544-1.297c-0.363-0.331-0.838-0.497-1.424-0.497
	c-0.594,0-1.074,0.166-1.441,0.497c-0.367,0.333-0.55,0.769-0.55,1.309c0,0.533,0.186,0.963,0.556,1.291
	c0.371,0.328,0.849,0.492,1.435,0.492C78.563,33.167,79.037,33.004,79.4,32.676"/>
<path fill="#BDAE86" d="M87.088,28.444l-0.394,1.274c-0.255-0.085-0.506-0.128-0.753-0.128c-0.301,0-0.584,0.06-0.851,0.18
	c-0.266,0.119-0.482,0.293-0.648,0.521c-0.166,0.227-0.249,0.5-0.249,0.815v3.184H82.85v-5.823h1.193l0.082,0.915
	c0.224-0.333,0.517-0.593,0.88-0.782c0.362-0.189,0.763-0.284,1.204-0.284C86.501,28.317,86.795,28.359,87.088,28.444"/>
<path fill="#BDAE86" d="M93.953,28.467v5.823h-1.193l-0.07-0.822c-0.208,0.31-0.486,0.548-0.833,0.718
	c-0.348,0.17-0.737,0.255-1.17,0.255c-0.463,0-0.884-0.098-1.262-0.295c-0.378-0.197-0.677-0.471-0.897-0.822
	c-0.22-0.351-0.33-0.754-0.33-1.21v-3.647h1.354v3.473c0,0.386,0.141,0.689,0.423,0.91c0.282,0.22,0.631,0.329,1.048,0.329
	c0.432-0.007,0.805-0.132,1.118-0.376c0.313-0.243,0.469-0.577,0.469-1.002v-3.334H93.953z"/>
<path fill="#BDAE86" d="M96.598,34.233c-0.537-0.139-0.963-0.324-1.279-0.555l0.509-1.019c0.247,0.185,0.593,0.334,1.037,0.446
	c0.443,0.112,0.885,0.168,1.325,0.168c0.394,0,0.723-0.052,0.99-0.156c0.267-0.105,0.399-0.272,0.399-0.503
	c0-0.147-0.06-0.261-0.18-0.342c-0.12-0.081-0.261-0.138-0.423-0.174c-0.162-0.034-0.46-0.086-0.891-0.156
	c-0.579-0.093-1.046-0.201-1.401-0.325c-0.355-0.123-0.627-0.297-0.816-0.52c-0.189-0.224-0.284-0.517-0.284-0.88
	c0-0.664,0.27-1.146,0.81-1.447c0.541-0.301,1.181-0.451,1.922-0.451c0.463,0,0.909,0.058,1.337,0.174
	c0.428,0.116,0.805,0.27,1.129,0.463l-0.509,1.03c-0.247-0.154-0.542-0.275-0.885-0.365c-0.344-0.088-0.705-0.133-1.083-0.133
	c-0.44,0-0.772,0.056-0.996,0.168c-0.224,0.111-0.336,0.276-0.336,0.491c0,0.108,0.035,0.197,0.104,0.267
	c0.07,0.069,0.191,0.129,0.365,0.18c0.174,0.05,0.434,0.106,0.781,0.168c0.641,0.116,1.141,0.226,1.5,0.33
	c0.359,0.105,0.654,0.268,0.885,0.492c0.232,0.224,0.348,0.532,0.348,0.926c0,0.61-0.258,1.085-0.775,1.424
	c-0.518,0.339-1.201,0.509-2.049,0.509C97.646,34.441,97.134,34.372,96.598,34.233"/>
</svg>
